<svg width="12" height="12" viewBox="0 0 12 12" fill="none" xmlns="http://www.w3.org/2000/svg">
<path d="M10.4606 6.588C10.4846 6.396 10.5026 6.204 10.5026 6C10.5026 5.796 10.4846 5.604 10.4606 5.412L11.7266 4.422C11.8406 4.332 11.8706 4.17 11.7986 4.038L10.5986 1.962C10.5266 1.83 10.3646 1.782 10.2326 1.83L8.73858 2.43C8.42658 2.19 8.09058 1.992 7.72458 1.842L7.49658 0.252C7.47858 0.108 7.35258 0 7.20258 0H4.80258C4.65258 0 4.52658 0.108 4.50858 0.252L4.28058 1.842C3.91458 1.992 3.57858 2.196 3.26658 2.43L1.77258 1.83C1.63458 1.776 1.47858 1.83 1.40658 1.962L0.206577 4.038C0.128577 4.17 0.164577 4.332 0.278577 4.422L1.54458 5.412C1.52058 5.604 1.50258 5.802 1.50258 6C1.50258 6.198 1.52058 6.396 1.54458 6.588L0.278577 7.578C0.164577 7.668 0.134577 7.83 0.206577 7.962L1.40658 10.038C1.47858 10.17 1.64058 10.218 1.77258 10.17L3.26658 9.57C3.57858 9.81 3.91458 10.008 4.28058 10.158L4.50858 11.748C4.52658 11.892 4.65258 12 4.80258 12H7.20258C7.35258 12 7.47858 11.892 7.49658 11.748L7.72458 10.158C8.09058 10.008 8.42658 9.804 8.73858 9.57L10.2326 10.17C10.3706 10.224 10.5266 10.17 10.5986 10.038L11.7986 7.962C11.8706 7.83 11.8406 7.668 11.7266 7.578L10.4606 6.588ZM6.00258 8.1C4.84458 8.1 3.90258 7.158 3.90258 6C3.90258 4.842 4.84458 3.9 6.00258 3.9C7.16058 3.9 8.10258 4.842 8.10258 6C8.10258 7.158 7.16058 8.1 6.00258 8.1Z" fill="#002033" fill-opacity="0.6"/>
</svg>
